<svg width="25" height="24" viewBox="0 0 25 24" fill="none" xmlns="http://www.w3.org/2000/svg">
<g id="Frame">
<path id="Vector" d="M10.4915 14.5101C13.2865 14.5101 15.733 12.9956 15.733 9.63003C15.733 6.26449 13.2865 4.75 10.4915 4.75C7.69653 4.75 5.25 6.26449 5.25 9.63003C5.25 10.8662 5.58005 11.8526 6.1362 12.606C6.33794 12.8793 6.29543 13.5163 6.13421 13.8153C5.74836 14.5309 6.47738 15.315 7.26977 15.1333C7.8629 14.9974 8.48504 14.8134 9.0295 14.5666C9.22883 14.4762 9.44893 14.4398 9.66641 14.4644C9.93657 14.4949 10.2123 14.5101 10.4915 14.5101Z" stroke="#F06595" stroke-width="1.5" stroke-linecap="round" stroke-linejoin="round"/>
<path id="Vector_2" d="M19.3086 10.0264C19.0471 9.70522 18.5746 9.65688 18.2535 9.91844C17.9323 10.18 17.8839 10.6524 18.1455 10.9736L19.3086 10.0264ZM11.4801 16.8944C11.1456 16.6501 10.6764 16.7231 10.4321 17.0575C10.1877 17.392 10.2607 17.8612 10.5952 18.1056L11.4801 16.8944ZM20.4827 13.63C20.4827 12.1584 20.0594 10.9483 19.3086 10.0264L18.1455 10.9736C18.6508 11.5941 18.9827 12.4572 18.9827 13.63H20.4827ZM19.4499 17.0514C20.1135 16.1525 20.4827 15.0047 20.4827 13.63H18.9827C18.9827 14.7277 18.6918 15.5527 18.2431 16.1606L19.4499 17.0514ZM15.6436 19.2497C16.2503 19.5247 16.9251 19.7222 17.5454 19.8644L17.8805 18.4023C17.3145 18.2725 16.7451 18.1021 16.2629 17.8835L15.6436 19.2497ZM14.4912 19.2601C14.7974 19.2601 15.1013 19.2435 15.4006 19.2096L15.232 17.7191C14.991 17.7464 14.7434 17.7601 14.4912 17.7601V19.2601ZM10.5952 18.1056C11.6903 18.9057 13.0777 19.2601 14.4912 19.2601V17.7601C13.3132 17.7601 12.2588 17.4634 11.4801 16.8944L10.5952 18.1056ZM16.2629 17.8835C15.944 17.739 15.588 17.6789 15.232 17.7191L15.4006 19.2096C15.4795 19.2007 15.5638 19.2135 15.6436 19.2497L16.2629 17.8835ZM18.1884 18.1713C18.2074 18.2065 18.2056 18.2245 18.2041 18.2341C18.2017 18.2495 18.1919 18.2788 18.1615 18.3131C18.0961 18.3868 17.9892 18.4272 17.8805 18.4023L17.5454 19.8644C18.2291 20.0211 18.8829 19.7603 19.2837 19.3084C19.6943 18.8455 19.8723 18.1337 19.5087 17.4593L18.1884 18.1713ZM18.2431 16.1606C17.9915 16.5015 17.9548 16.9378 17.9616 17.2191C17.9689 17.522 18.0333 17.8837 18.1884 18.1713L19.5087 17.4593C19.5107 17.4632 19.4977 17.4377 19.484 17.3763C19.4714 17.3192 19.4628 17.2514 19.4612 17.1829C19.4595 17.1133 19.4653 17.0587 19.4727 17.0242C19.4813 16.9836 19.4846 17.0045 19.4499 17.0514L18.2431 16.1606Z" fill="#F06595"/>
</g>
</svg>
